<svg id="Capa_1" data-name="Capa 1" xmlns="http://www.w3.org/2000/svg" viewBox="0 0 2464.42 796.6"><defs><style>.cls-1{fill:#c1e8e6;}.cls-2,.cls-5{fill:#e6b706;}.cls-3{fill:#fcd465;}.cls-4{fill:#082947;}.cls-5{font-size:350px;font-family:Planer-Regular, Planer;}.cls-6{letter-spacing:-0.01em;}</style></defs><title>logo-text</title><circle class="cls-1" cx="2045.91" cy="518.2" r="119.52"/><path class="cls-2" d="M325.61,281.64A61.26,61.26,0,0,0,265,334.55H247a61.17,61.17,0,1,0,0,16.88h18.12a61.17,61.17,0,1,0,60.56-69.8Z" transform="translate(0 -24)"/><path class="cls-3" d="M133.64,81.17V247.45A108.79,108.79,0,0,1,256,259a108.79,108.79,0,0,1,122.35-11.56V81.17Z" transform="translate(0 -24)"/><rect class="cls-2" x="476.88" y="34.66" width="35.12" height="33.76"/><polygon class="cls-2" points="476.88 34.66 476.88 68.41 378.35 68.41 133.64 68.41 0 68.41 0 34.66 476.88 34.66"/><circle class="cls-4" cx="329.32" cy="147.49" r="8.44"/><circle class="cls-4" cx="306.82" cy="181.25" r="8.44"/><circle class="cls-1" cx="325.61" cy="318.81" r="44.3"/><circle class="cls-1" cx="186.38" cy="318.81" r="44.3"/><path class="cls-3" d="M476.88,50.22a8.44,8.44,0,0,0-8.44,8.44V238h16.88V58.66A8.44,8.44,0,0,0,476.88,50.22Z" transform="translate(0 -24)"/><circle class="cls-2" cx="306.82" cy="181.25" r="8.44"/><circle class="cls-2" cx="329.32" cy="147.49" r="8.44"/><path class="cls-3" d="M448.75,288.64V457.57h28.13L488.13,359l-11.25-98.53A28.13,28.13,0,0,0,448.75,288.64Z" transform="translate(0 -24)"/><path class="cls-2" d="M505,288.64a28.13,28.13,0,0,0-28.13-28.13V457.57H505Z" transform="translate(0 -24)"/><path class="cls-2" d="M476.88,221.13a22.51,22.51,0,1,1-22.51,22.51A22.51,22.51,0,0,1,476.88,221.13Z" transform="translate(0 -24)"/><path class="cls-2" d="M279.08,488.51s17.2-49.68,8.74-54.35c-16.64-5.77-50.95-5.33-63.72,0s9.61,54.35,9.61,54.35Z" transform="translate(0 -24)"/><path class="cls-3" d="M257.48,429.85c-12.38,0-26.93,1.62-33.38,4.31-12.77,5.32,9.61,54.35,9.61,54.35h23.47Z" transform="translate(0 -24)"/><path class="cls-2" d="M233.9,487.27,190,752.26l66.29,55.07,61.18-55.07L279,487.27Z" transform="translate(0 -24)"/><path class="cls-3" d="M233.9,487.27,190,752.26l66.29,55.07.57-320.06Z" transform="translate(0 -24)"/><text class="cls-5" transform="translate(568.85 297.5)">INTERNSHIP<tspan x="0" y="420">FIN</tspan><tspan class="cls-6" x="520.09" y="420">D</tspan><tspan x="741.65" y="420">ER</tspan></text><path class="cls-3" d="M2275,796.88l24.53-24.53a8.21,8.21,0,0,0,0-11.66L2178.68,639.87l-36.19,36.19L2263.3,796.88A8.21,8.21,0,0,0,2275,796.88Z" transform="translate(0 -24)"/><path class="cls-2" d="M2044.92,464.24a78.24,78.24,0,0,0-78.14,78.14,7.37,7.37,0,1,0,14.74,0,63.45,63.45,0,0,1,63.4-63.4,7.37,7.37,0,1,0,0-14.74Z" transform="translate(0 -24)"/><path class="cls-2" d="M2183.87,634.69a7.38,7.38,0,0,0-10.36,0l-12.87,12.87-17.09-17.09a131.77,131.77,0,0,0,33.77-88.18c0-73-59.35-132.31-132.31-132.31s-132.39,59.35-132.39,132.31S1972,674.61,2044.92,674.61a131.93,131.93,0,0,0,88.18-33.77l17.09,17.09-12.87,12.87a7.24,7.24,0,0,0,0,10.36l114.9,114.9a23.85,23.85,0,0,0,33.85,0l12.71-12.71a23.85,23.85,0,0,0,0-33.85ZM1927.34,542.3A117.65,117.65,0,1,1,2045,660,117.81,117.81,0,0,1,1927.34,542.3ZM2288.4,773.07l-12.71,12.71a9.19,9.19,0,0,1-13.12,0L2152.85,676.07l25.83-25.83L2288.4,760a9.12,9.12,0,0,1,2.75,6.56A9.32,9.32,0,0,1,2288.4,773.07Z" transform="translate(0 -24)"/></svg>